<svg width="32" height="32" fill="none" xmlns="http://www.w3.org/2000/svg"><path fill-rule="evenodd" clip-rule="evenodd" d="M15.187 5.61a8.95 8.95 0 100 17.898 8.95 8.95 0 000-17.898zm-13.56 8.95C1.627 7.07 7.697 1 15.187 1c7.488 0 13.559 6.07 13.559 13.56 0 7.488-6.07 13.559-13.56 13.559-7.488 0-13.559-6.071-13.559-13.56z" fill="#AD00DC"/><path fill-rule="evenodd" clip-rule="evenodd" d="M18.44 8.322a8.95 8.95 0 100 17.898 8.95 8.95 0 000-17.898zm-13.559 8.95c0-7.49 6.071-13.56 13.56-13.56C25.929 3.712 32 9.782 32 17.272c0 7.488-6.07 13.559-13.56 13.559-7.488 0-13.559-6.071-13.559-13.56z" fill="#FFC300"/><path fill-rule="evenodd" clip-rule="evenodd" d="M13.56 7.78a8.95 8.95 0 100 17.898 8.95 8.95 0 000-17.898zM0 16.729C0 9.24 6.07 3.169 13.56 3.169c7.488 0 13.559 6.071 13.559 13.56 0 7.488-6.071 13.56-13.56 13.56C6.071 30.288 0 24.216 0 16.728z" fill="url(#paint0_linear)"/><path fill-rule="evenodd" clip-rule="evenodd" d="M16.271 7.237a8.95 8.95 0 100 17.899 8.95 8.95 0 000-17.899zm-13.56 8.95c0-7.49 6.072-13.56 13.56-13.56 7.489 0 13.56 6.07 13.56 13.56 0 7.488-6.071 13.559-13.56 13.559-7.488 0-13.56-6.071-13.56-13.56z" fill="url(#paint1_linear)"/><defs><linearGradient id="paint0_linear" x1=".814" y1="13.475" x2="26.576" y2="18.085" gradientUnits="userSpaceOnUse"><stop stop-color="#FF5800"/><stop offset="1" stop-color="#FF0D70"/></linearGradient><linearGradient id="paint1_linear" x1="3.525" y1="12.932" x2="29.288" y2="17.542" gradientUnits="userSpaceOnUse"><stop stop-color="#00B2EE"/><stop offset="1" stop-color="#00DCB6"/></linearGradient></defs></svg>