<svg width="32" height="32" viewBox="0 0 32 32" fill="none" xmlns="http://www.w3.org/2000/svg">
<path fill-rule="evenodd" clip-rule="evenodd" d="M9.01412 22.3586C10.5916 22.3586 11.3803 21.5699 11.3803 18.9784V6.24609H15.5493V19.3164C15.5493 23.0347 13.6338 26.1896 9.57749 26.1896C6.76062 26.1896 4.84514 25.0628 3.60571 22.6967L6.42259 20.4432C7.09864 21.7953 8.11272 22.3586 9.01412 22.3586ZM30.7606 12.1052C30.7606 14.5841 29.5212 16.6122 27.3804 17.5136L32 25.8516H27.3804L23.0987 18.1897H22.0846V25.8516H18.0283V6.24609H24.0001C26.0282 6.24609 27.6057 6.69679 28.7325 7.59819C29.6339 8.27425 30.7606 9.62635 30.7606 12.1052ZM22.0846 10.1897V14.3587H23.7747C24.9015 14.3587 25.6902 14.1333 26.1409 13.7953C26.479 13.57 26.7043 13.0066 26.7043 12.2179C26.7043 11.0911 26.479 10.1897 23.7747 10.1897H22.0846Z" fill="#353535"/>
<path fill-rule="evenodd" clip-rule="evenodd" d="M11.2678 14.922H0.000320896C0.000320896 14.922 -0.225029 3.99251 11.2678 6.24601V14.922Z" fill="#FFE22E"/>
<path fill-rule="evenodd" clip-rule="evenodd" d="M13.634 10.6403C13.634 11.9924 12.5072 13.1192 11.0424 13.0065C9.69035 13.0065 8.67627 11.8797 8.67627 10.6403C8.67627 9.28822 9.69035 8.16147 11.0424 8.0488C12.3945 7.93612 13.5213 9.06287 13.634 10.415C13.634 10.5276 13.634 10.5276 13.634 10.6403Z" fill="#FEFEFD"/>
<path fill-rule="evenodd" clip-rule="evenodd" d="M12.2819 10.6403C12.2819 11.3164 11.8312 11.8798 11.1552 11.8798C10.4791 11.8798 9.91577 11.4291 9.91577 10.753V10.6403C9.91577 9.96427 10.4791 9.4009 11.1552 9.51357C11.8312 9.51357 12.2819 9.96427 12.2819 10.6403Z" fill="#353535"/>
</svg>
