<svg width="32" height="32" viewBox="0 0 32 32" fill="none" xmlns="http://www.w3.org/2000/svg">
<path fill-rule="evenodd" clip-rule="evenodd" d="M15.1865 5.61017C10.244 5.61017 6.23737 9.61684 6.23737 14.5593C6.23737 19.5018 10.244 23.5085 15.1865 23.5085C20.129 23.5085 24.1357 19.5018 24.1357 14.5593C24.1357 9.61684 20.129 5.61017 15.1865 5.61017ZM1.6272 14.5593C1.6272 7.07071 7.69791 1 15.1865 1C22.6751 1 28.7458 7.07071 28.7458 14.5593C28.7458 22.0479 22.6751 28.1186 15.1865 28.1186C7.69791 28.1186 1.6272 22.0479 1.6272 14.5593Z" fill="#AD00DC"/>
<path fill-rule="evenodd" clip-rule="evenodd" d="M18.4407 8.32208C13.4982 8.32208 9.49152 12.3288 9.49152 17.2712C9.49152 22.2137 13.4982 26.2204 18.4407 26.2204C23.3832 26.2204 27.3898 22.2137 27.3898 17.2712C27.3898 12.3288 23.3832 8.32208 18.4407 8.32208ZM4.88135 17.2712C4.88135 9.78263 10.9521 3.71191 18.4407 3.71191C25.9293 3.71191 32 9.78263 32 17.2712C32 24.7598 25.9293 30.8306 18.4407 30.8306C10.9521 30.8306 4.88135 24.7598 4.88135 17.2712Z" fill="#FFC300"/>
<path fill-rule="evenodd" clip-rule="evenodd" d="M13.5593 7.7796C8.61684 7.7796 4.61017 11.7863 4.61017 16.7288C4.61017 21.6712 8.61684 25.6779 13.5593 25.6779C18.5018 25.6779 22.5085 21.6712 22.5085 16.7288C22.5085 11.7863 18.5018 7.7796 13.5593 7.7796ZM0 16.7288C0 9.24015 6.07071 3.16943 13.5593 3.16943C21.0479 3.16943 27.1186 9.24015 27.1186 16.7288C27.1186 24.2174 21.0479 30.2881 13.5593 30.2881C6.07071 30.2881 0 24.2174 0 16.7288Z" fill="url(#paint0_linear)"/>
<path fill-rule="evenodd" clip-rule="evenodd" d="M16.2712 7.23724C11.3288 7.23724 7.32208 11.2439 7.32208 16.1864C7.32208 21.1289 11.3288 25.1355 16.2712 25.1355C21.2137 25.1355 25.2204 21.1289 25.2204 16.1864C25.2204 11.2439 21.2137 7.23724 16.2712 7.23724ZM2.71191 16.1864C2.71191 8.69779 8.78263 2.62708 16.2712 2.62708C23.7598 2.62708 29.8306 8.69779 29.8306 16.1864C29.8306 23.675 23.7598 29.7457 16.2712 29.7457C8.78263 29.7457 2.71191 23.675 2.71191 16.1864Z" fill="url(#paint1_linear)"/>
<defs>
<linearGradient id="paint0_linear" x1="0.813559" y1="13.4745" x2="26.5763" y2="18.0847" gradientUnits="userSpaceOnUse">
<stop stop-color="#FF5800"/>
<stop offset="1" stop-color="#FF0D70"/>
</linearGradient>
<linearGradient id="paint1_linear" x1="3.52547" y1="12.9322" x2="29.2882" y2="17.5423" gradientUnits="userSpaceOnUse">
<stop stop-color="#00B2EE"/>
<stop offset="1" stop-color="#00DCB6"/>
</linearGradient>
</defs>
</svg>
